<?xml version="1.0" encoding="UTF-8" standalone="no"?>
<!-- Created with Inkscape (http://www.inkscape.org/) -->

<svg
   xmlns:dc="http://purl.org/dc/elements/1.1/"
   xmlns:cc="http://creativecommons.org/ns#"
   xmlns:rdf="http://www.w3.org/1999/02/22-rdf-syntax-ns#"
   xmlns:svg="http://www.w3.org/2000/svg"
   xmlns="http://www.w3.org/2000/svg"
   xmlns:sodipodi="http://sodipodi.sourceforge.net/DTD/sodipodi-0.dtd"
   xmlns:inkscape="http://www.inkscape.org/namespaces/inkscape"
   width="40"
   height="40"
   viewBox="0 0 10.583334 10.583333"
   version="1.1"
   id="svg8"
   inkscape:version="0.92.4 5da689c313, 2019-01-14"
   sodipodi:docname="logo-no-text.svg"
   inkscape:export-filename="/home/luke/logo-no-text.svg.png"
   inkscape:export-xdpi="960"
   inkscape:export-ydpi="960">
  <defs
     id="defs2" />
  <sodipodi:namedview
     id="base"
     pagecolor="#ffffff"
     bordercolor="#666666"
     borderopacity="1.0"
     inkscape:pageopacity="0.0"
     inkscape:pageshadow="2"
     inkscape:zoom="15.839192"
     inkscape:cx="4.7909433"
     inkscape:cy="21.272286"
     inkscape:document-units="mm"
     inkscape:current-layer="layer1"
     showgrid="true"
     showguides="true"
     inkscape:window-width="1920"
     inkscape:window-height="1080"
     inkscape:window-x="0"
     inkscape:window-y="0"
     inkscape:window-maximized="0"
     fit-margin-top="0"
     fit-margin-left="0"
     fit-margin-right="0"
     fit-margin-bottom="0"
     units="px" />
  <metadata
     id="metadata5">
    <rdf:RDF>
      <cc:Work
         rdf:about="">
        <dc:format>image/svg+xml</dc:format>
        <dc:type
           rdf:resource="http://purl.org/dc/dcmitype/StillImage" />
        <dc:title></dc:title>
      </cc:Work>
    </rdf:RDF>
  </metadata>
  <g
     inkscape:label="Layer 1"
     inkscape:groupmode="layer"
     id="layer1"
     transform="translate(-28.606038,-144.48854)">
    <g
       id="g2106"
       transform="translate(0.29827172,-0.34925653)">
      <path
         inkscape:connector-curvature="0"
         id="path5689"
         d="m 33.477607,153.09345 c -0.0011,-0.005 -0.02673,-0.0529 -0.05689,-0.10714 -0.345794,-0.62183 -0.870942,-1.14624 -1.523066,-1.52096 -0.231693,-0.13313 -0.536392,-0.27406 -0.779356,-0.36048 -0.06308,-0.0224 -0.114747,-0.0427 -0.114814,-0.045 -1.45e-4,-0.005 2.472939,-0.38611 2.477355,-0.38169 0.0016,0.002 0.0021,0.54777 0.0011,1.21346 -0.0011,0.66569 -0.0031,1.20649 -0.0042,1.20179 z"
         style="fill:#0072ce;fill-opacity:1;stroke:none;stroke-width:0.00615562;stroke-linecap:round;stroke-linejoin:round;stroke-miterlimit:4;stroke-dasharray:none;stroke-opacity:1;paint-order:fill markers stroke" />
      <path
         sodipodi:nodetypes="cc"
         inkscape:connector-curvature="0"
         id="path5635-7"
         d="m 33.672957,150.52241 -3.236425,0.48428"
         style="fill:none;stroke:#ffffff;stroke-width:0.36500001;stroke-linecap:butt;stroke-linejoin:miter;stroke-miterlimit:4;stroke-dasharray:none;stroke-opacity:1" />
      <path
         inkscape:connector-curvature="0"
         id="path5687"
         d="m 33.75629,151.90257 c -0.0033,-0.66668 -0.0047,-1.21333 -0.0033,-1.21477 0.0028,-0.003 2.44449,0.36069 2.478786,0.36906 0.01421,0.003 0.01688,0.006 0.0084,0.009 -0.06871,0.0225 -0.303866,0.11386 -0.39673,0.15405 -0.904391,0.39145 -1.625174,1.03187 -2.035873,1.80891 l -0.0453,0.0857 z"
         style="fill:#0072ce;fill-opacity:1;stroke:none;stroke-width:0.00615562;stroke-linecap:round;stroke-linejoin:round;stroke-miterlimit:4;stroke-dasharray:none;stroke-opacity:1;paint-order:fill markers stroke" />
      <circle
         r="0.61337352"
         cy="145.8978"
         cx="33.59586"
         id="path821"
         style="fill:#ffffff;fill-opacity:1;stroke:#000000;stroke-width:0.19473402;stroke-linejoin:round;stroke-miterlimit:4;stroke-dasharray:none;stroke-opacity:1;paint-order:fill markers stroke" />
      <circle
         r="0"
         cx="29.828588"
         cy="151.03743"
         id="path821-6"
         style="fill:none;fill-opacity:1;stroke:#000000;stroke-width:0.19473402;stroke-linejoin:round;stroke-miterlimit:4;stroke-dasharray:none;stroke-opacity:1;paint-order:fill markers stroke" />
      <circle
         r="0.61337352"
         cy="154.36113"
         cx="33.587914"
         id="path821-2"
         style="fill:#ffffff;fill-opacity:1;stroke:#000000;stroke-width:0.19473402;stroke-linejoin:round;stroke-miterlimit:4;stroke-dasharray:none;stroke-opacity:1;paint-order:fill markers stroke" />
      <path
         inkscape:connector-curvature="0"
         id="path952"
         d="m 30.436532,151.00669 c 2.787575,0.66146 3.189176,2.76396 3.189176,2.76396"
         style="fill:none;stroke:#000000;stroke-width:0.26499999;stroke-linecap:butt;stroke-linejoin:miter;stroke-miterlimit:4;stroke-dasharray:none;stroke-opacity:1" />
      <path
         sodipodi:nodetypes="cc"
         inkscape:connector-curvature="0"
         id="path5635"
         d="m 33.578459,150.52241 3.236425,0.48428"
         style="fill:none;stroke:#ffffff;stroke-width:0.36500001;stroke-linecap:butt;stroke-linejoin:miter;stroke-miterlimit:4;stroke-dasharray:none;stroke-opacity:1" />
      <path
         inkscape:connector-curvature="0"
         id="path952-1"
         d="m 36.814884,151.00669 c -2.787575,0.66146 -3.189176,2.76396 -3.189176,2.76396"
         style="fill:none;stroke:#000000;stroke-width:0.26499999;stroke-linecap:butt;stroke-linejoin:miter;stroke-miterlimit:4;stroke-dasharray:none;stroke-opacity:1" />
      <path
         inkscape:connector-curvature="0"
         id="path952-2"
         d="m 32.927623,154.36409 c -2.78758,-0.66146 -3.18918,-2.76396 -3.18918,-2.76396"
         style="fill:none;stroke:#000000;stroke-width:0.26499999;stroke-linecap:butt;stroke-linejoin:miter;stroke-miterlimit:4;stroke-dasharray:none;stroke-opacity:1" />
      <path
         inkscape:connector-curvature="0"
         id="path952-1-7"
         d="m 34.217486,154.3759 c 2.78758,-0.66146 3.18918,-2.76396 3.18918,-2.76396"
         style="fill:none;stroke:#000000;stroke-width:0.26499999;stroke-linecap:butt;stroke-linejoin:miter;stroke-miterlimit:4;stroke-dasharray:none;stroke-opacity:1" />
      <path
         sodipodi:nodetypes="cc"
         inkscape:connector-curvature="0"
         id="path1005"
         d="m 29.928814,150.43607 c 3.023486,-2.7061 3.173826,-4.15938 3.173826,-4.15938"
         style="fill:none;stroke:#000000;stroke-width:0.26499999;stroke-linecap:butt;stroke-linejoin:miter;stroke-miterlimit:4;stroke-dasharray:none;stroke-opacity:1" />
      <path
         sodipodi:nodetypes="cc"
         inkscape:connector-curvature="0"
         id="path1005-0"
         d="m 37.244593,150.42982 c -3.023486,-2.7061 -3.173826,-4.15938 -3.173826,-4.15938"
         style="fill:none;stroke:#000000;stroke-width:0.26499999;stroke-linecap:butt;stroke-linejoin:miter;stroke-miterlimit:4;stroke-dasharray:none;stroke-opacity:1" />
      <path
         inkscape:connector-curvature="0"
         id="path1022"
         d="m 33.603771,146.51055 0.02193,7.2601"
         style="fill:none;stroke:#000000;stroke-width:0.27000001;stroke-linecap:butt;stroke-linejoin:miter;stroke-miterlimit:4;stroke-dasharray:none;stroke-opacity:1" />
      <path
         sodipodi:nodetypes="ccscscccssscscscccccscccc"
         style="stroke-width:0.00488633"
         inkscape:connector-curvature="0"
         d="m 33.034265,149.22555 c 0.0011,7.5e-4 0.0018,8.6e-4 0.0028,0.001 0.0088,0.007 0.01552,0.0178 0.01857,0.0301 0.0034,0.014 0.0022,0.0281 -0.0033,0.0402 -0.0062,0.014 -0.15756,0.34216 -0.517732,0.45952 -0.360176,0.11734 -0.640078,-0.0703 -0.651815,-0.0784 -0.02142,-0.0147 -0.02951,-0.0472 -0.01809,-0.0725 0.459675,-0.58028 0.513278,-0.59646 1.169555,-0.38085 z m -0.525761,0.42735 c 0.156246,-0.051 0.219121,-0.14231 0.185594,-0.2768 -0.03353,-0.13456 -0.129097,-0.17424 -0.28534,-0.12336 -0.156254,0.051 -0.219129,0.14232 -0.185604,0.2768 0.03354,0.13456 0.1291,0.17426 0.28535,0.12336 z m 0.213276,-0.43043 c 0.0248,0.0337 0.04387,0.0759 0.05642,0.12616 0.01249,0.0501 0.01571,0.0972 0.01029,0.14077 0.07933,-0.0731 0.131832,-0.14909 0.160328,-0.19653 -0.04608,-0.0232 -0.125767,-0.0564 -0.227118,-0.0706 z m -0.5263,0.46073 c -0.0248,-0.0337 -0.04387,-0.0757 -0.05642,-0.12616 -0.01249,-0.0501 -0.01571,-0.0973 -0.01029,-0.14077 -0.07933,0.073 -0.131823,0.1491 -0.160318,0.19653 0.04608,0.0232 0.125754,0.0564 0.227104,0.0706 z"
         id="path1165-8" />
      <path
         sodipodi:nodetypes="ccscscccssscscscccccscccc"
         style="stroke-width:0.00488633"
         inkscape:connector-curvature="0"
         d="m 34.173277,149.22555 c -0.0011,7.4e-4 -0.0018,8.5e-4 -0.0028,0.001 -0.0088,0.007 -0.01552,0.0178 -0.01857,0.0301 -0.0034,0.014 -0.0022,0.0281 0.0033,0.0402 0.0062,0.014 0.15756,0.34216 0.517732,0.45952 0.360177,0.11734 0.640079,-0.0703 0.651816,-0.0784 0.02142,-0.0147 0.02951,-0.0472 0.01809,-0.0725 -0.459675,-0.58028 -0.513278,-0.59646 -1.169555,-0.38085 z m 0.525761,0.42735 c -0.156246,-0.051 -0.219121,-0.14231 -0.185594,-0.2768 0.03353,-0.13456 0.129097,-0.17424 0.28534,-0.12336 0.156254,0.051 0.219129,0.14232 0.185604,0.2768 -0.03354,0.13456 -0.1291,0.17426 -0.28535,0.12336 z m -0.213276,-0.43043 c -0.0248,0.0337 -0.04387,0.0759 -0.05642,0.12616 -0.01249,0.0501 -0.01571,0.0972 -0.01029,0.14077 -0.07933,-0.0731 -0.131832,-0.14909 -0.160328,-0.19653 0.04608,-0.0232 0.125767,-0.0564 0.227118,-0.0706 z m 0.5263,0.46073 c 0.0248,-0.0337 0.04387,-0.0757 0.05642,-0.12616 0.01249,-0.0501 0.01571,-0.0973 0.01029,-0.14077 0.07933,0.073 0.131823,0.1491 0.160318,0.19653 -0.04608,0.0232 -0.125754,0.0564 -0.227104,0.0706 z"
         id="path1165-8-5" />
      <path
         style="stroke:none;stroke-width:0.00488633;stroke-opacity:1"
         inkscape:connector-curvature="0"
         d="m 32.45482,149.31207 c 0.06389,0 0.115862,0.0634 0.115862,0.14135 0,0.078 -0.05197,0.14136 -0.115862,0.14136 -0.06389,0 -0.115862,-0.0634 -0.115862,-0.14136 0,-0.078 0.05197,-0.14135 0.115862,-0.14135 z m 0,0.17603 c 0.01567,0 0.02842,-0.0155 0.02842,-0.0347 0,-0.019 -0.01275,-0.0347 -0.02842,-0.0347 -0.01568,0 -0.02842,0.0155 -0.02842,0.0347 5e-6,0.0192 0.01275,0.0347 0.02842,0.0347 z"
         id="path1167-7" />
      <path
         style="stroke-width:0.00488633"
         inkscape:connector-curvature="0"
         d="m 34.752722,149.31207 c -0.06389,0 -0.115862,0.0634 -0.115862,0.14135 0,0.078 0.05197,0.14136 0.115862,0.14136 0.06389,0 0.115862,-0.0634 0.115862,-0.14136 0,-0.078 -0.05197,-0.14135 -0.115862,-0.14135 z m 0,0.17603 c -0.01567,0 -0.02842,-0.0155 -0.02842,-0.0347 0,-0.019 0.01275,-0.0347 0.02842,-0.0347 0.01568,0 0.02842,0.0155 0.02842,0.0347 -5e-6,0.0192 -0.01275,0.0347 -0.02842,0.0347 z"
         id="path1167-7-9" />
      <path
         sodipodi:nodetypes="cc"
         inkscape:connector-curvature="0"
         id="path5588"
         d="m 32.997949,148.96847 c -0.79196,-0.26048 -1.218676,0.48789 -1.218676,0.48789"
         style="fill:none;stroke:#000000;stroke-width:0.13094598;stroke-linecap:round;stroke-linejoin:miter;stroke-miterlimit:4;stroke-dasharray:none;stroke-opacity:1" />
      <path
         sodipodi:nodetypes="cc"
         inkscape:connector-curvature="0"
         id="path5588-2"
         d="m 34.209593,148.96847 c 0.79196,-0.26048 1.218676,0.48789 1.218676,0.48789"
         style="fill:none;stroke:#000000;stroke-width:0.13094598;stroke-linecap:round;stroke-linejoin:miter;stroke-miterlimit:4;stroke-dasharray:none;stroke-opacity:1" />
      <path
         inkscape:connector-curvature="0"
         id="path5691"
         d="m 34.277498,154.17816 c -0.06063,-0.22952 -0.231238,-0.41291 -0.457777,-0.49206 -0.029,-0.0101 -0.05447,-0.0202 -0.05659,-0.0223 -0.007,-0.007 0.06274,-0.19766 0.118409,-0.324 0.181602,-0.41214 0.493763,-0.84371 0.838724,-1.15955 0.381788,-0.34957 0.810043,-0.61577 1.3312,-0.82749 0.108196,-0.044 0.424694,-0.15174 0.536554,-0.18272 l 0.05976,-0.0166 0.01384,0.0551 c 0.06524,0.25973 0.286401,0.46718 0.554241,0.51987 0.02837,0.006 0.05158,0.0112 0.05158,0.0126 0,0.001 -0.01169,0.0356 -0.02598,0.0762 -0.191918,0.54444 -0.564282,1.07566 -1.038905,1.48212 -0.481608,0.41244 -1.063424,0.71404 -1.761652,0.91319 -0.07314,0.0208 -0.135519,0.0379 -0.138633,0.0379 -0.0031,0 -0.01424,-0.0325 -0.02474,-0.0723 z"
         style="fill:#0072ce;fill-opacity:1;stroke:none;stroke-width:0.26499999;stroke-linecap:round;stroke-linejoin:round;stroke-miterlimit:4;stroke-dasharray:none;stroke-opacity:1;paint-order:fill markers stroke" />
      <path
         inkscape:connector-curvature="0"
         id="path5693"
         d="m 32.75726,154.21608 c -0.719444,-0.19834 -1.33483,-0.5143 -1.825458,-0.93726 -0.117964,-0.10169 -0.34758,-0.33614 -0.439026,-0.44827 -0.177114,-0.21717 -0.322916,-0.44023 -0.439756,-0.67277 -0.07026,-0.13983 -0.173172,-0.39761 -0.162859,-0.40792 0.0028,-0.003 0.0172,-0.005 0.03199,-0.005 0.03903,0 0.163216,-0.0377 0.223353,-0.0679 0.188592,-0.0945 0.320752,-0.25914 0.374613,-0.46666 0.01013,-0.0391 0.01889,-0.0718 0.01947,-0.0728 0.0024,-0.004 0.292487,0.0831 0.409414,0.12306 1.050044,0.35887 1.847495,1.00055 2.313908,1.8619 0.07319,0.13515 0.147646,0.30227 0.19467,0.43692 0.03392,0.0971 0.03408,0.0981 0.0155,0.0981 -0.07525,0 -0.251016,0.0792 -0.341622,0.15394 -0.109543,0.0904 -0.204089,0.24151 -0.236755,0.37851 -0.0079,0.0333 -0.01487,0.0603 -0.0154,0.0601 -5.29e-4,-2.6e-4 -0.05546,-0.0155 -0.122065,-0.0339 z"
         style="fill:#0072ce;fill-opacity:1;stroke:none;stroke-width:0.00615562;stroke-linecap:round;stroke-linejoin:round;stroke-miterlimit:4;stroke-dasharray:none;stroke-opacity:1;paint-order:fill markers stroke" />
      <path
         inkscape:connector-curvature="0"
         id="path5695"
         d="m 35.183566,150.62658 -1.428221,-0.21451 -0.0061,-1.09387 c -0.0034,-0.60163 -0.0052,-1.45945 -0.0042,-1.90628 l 0.0019,-0.8124 0.0809,-0.0278 c 0.0445,-0.0153 0.104902,-0.0429 0.134234,-0.0613 l 0.05334,-0.0334 0.02315,0.0718 c 0.0625,0.19397 0.211875,0.51522 0.355748,0.76507 0.504095,0.87543 1.349417,1.86875 2.486932,2.92232 0.08375,0.0776 0.152125,0.14335 0.151937,0.14616 -1.87e-4,0.003 -0.02709,0.0218 -0.05978,0.0421 -0.127653,0.0795 -0.240511,0.21701 -0.287665,0.35052 -0.02286,0.0647 -0.02495,0.0676 -0.04894,0.0668 -0.01378,-5.3e-4 -0.667755,-0.0973 -1.453277,-0.21531 z m -0.16029,-0.83684 c 0.08327,-0.0125 0.166249,-0.0377 0.236951,-0.072 0.0955,-0.0464 0.111651,-0.0767 0.07092,-0.13287 -0.05268,-0.0727 -0.199956,-0.24488 -0.268057,-0.31333 -0.204693,-0.20576 -0.345335,-0.22245 -0.763739,-0.0907 -0.07381,0.0233 -0.137181,0.0468 -0.140816,0.0524 -0.01849,0.0282 -0.01561,0.049 0.01437,0.10387 0.17418,0.31882 0.518755,0.50224 0.850384,0.45266 z m 0.452996,-0.28715 c 0.03129,-0.0313 0.02661,-0.0609 -0.02077,-0.13122 -0.148928,-0.22105 -0.382981,-0.40307 -0.616201,-0.4792 -0.161666,-0.0528 -0.382095,-0.0596 -0.55182,-0.0171 -0.127725,0.032 -0.143762,0.0429 -0.143762,0.0979 0,0.0268 0.03191,0.0657 0.0538,0.0657 0.007,0 0.04762,-0.009 0.09017,-0.02 0.10763,-0.0279 0.222326,-0.0405 0.307046,-0.0337 0.151977,0.0121 0.313825,0.0712 0.448585,0.16387 0.08202,0.0564 0.211154,0.18346 0.274307,0.26996 0.02683,0.0367 0.05622,0.0753 0.06531,0.0856 0.02289,0.026 0.06639,0.0252 0.09333,-0.002 z"
         style="fill:#ffc72c;fill-opacity:1;stroke:none;stroke-width:0.00615562;stroke-linecap:round;stroke-linejoin:round;stroke-miterlimit:4;stroke-dasharray:none;stroke-opacity:1;paint-order:fill markers stroke" />
      <path
         inkscape:connector-curvature="0"
         id="path5697"
         d="m 30.500023,150.79399 c -0.05664,-0.1599 -0.18965,-0.31239 -0.339833,-0.38959 l -0.02878,-0.0148 0.03295,-0.0296 c 0.386733,-0.34719 0.998741,-0.9582 1.344435,-1.34223 0.810591,-0.90049 1.400659,-1.79099 1.620092,-2.44497 l 0.03569,-0.10637 0.01976,0.0152 c 0.05591,0.0432 0.157821,0.0898 0.23832,0.10912 l 0.04178,0.01 0.0056,0.87021 c 0.003,0.47862 0.0056,1.33337 0.0056,1.89946 l 2e-6,1.02924 -0.01879,0.004 c -0.01034,0.002 -0.667131,0.10391 -1.459542,0.22566 -0.792414,0.12175 -1.44829,0.22309 -1.457502,0.22519 -0.01434,0.003 -0.02006,-0.006 -0.03969,-0.0609 z m 1.982838,-1.01917 c 0.219575,-0.0575 0.409107,-0.20218 0.535236,-0.40846 0.04607,-0.0753 0.05265,-0.11873 0.02104,-0.13878 -0.02283,-0.0145 -0.174795,-0.0636 -0.306314,-0.0991 -0.08654,-0.0233 -0.109439,-0.0261 -0.218395,-0.0266 l -0.121719,-5.3e-4 -0.0744,0.0369 c -0.06503,0.0322 -0.0871,0.0496 -0.175218,0.13781 -0.109977,0.11013 -0.287872,0.32567 -0.287872,0.34879 0,0.0362 0.02021,0.057 0.08683,0.0893 0.132969,0.0646 0.231486,0.0857 0.376722,0.0808 0.06324,-0.002 0.123793,-0.01 0.164089,-0.0201 z m -0.653013,-0.27469 c 0.0097,-0.0126 0.04329,-0.0568 0.07462,-0.0981 0.142809,-0.18846 0.334899,-0.32739 0.530841,-0.38394 0.159126,-0.0459 0.306076,-0.0457 0.483079,7.9e-4 0.07029,0.0185 0.0853,0.02 0.10681,0.0111 0.02913,-0.0121 0.04109,-0.0308 0.04109,-0.0644 0,-0.0468 -0.03618,-0.0664 -0.183748,-0.0996 -0.0881,-0.0198 -0.282445,-0.0238 -0.375023,-0.008 -0.253643,0.0442 -0.491844,0.18848 -0.6755,0.40913 -0.084,0.10093 -0.118782,0.15654 -0.118782,0.18992 0,0.0619 0.07949,0.091 0.11661,0.0427 z"
         style="fill:#ffc72c;fill-opacity:1;stroke:none;stroke-width:0.00615562;stroke-linecap:round;stroke-linejoin:round;stroke-miterlimit:4;stroke-dasharray:none;stroke-opacity:1;paint-order:fill markers stroke" />
      <path
         inkscape:connector-curvature="0"
         id="path5703"
         d="m 32.711323,154.19952 c -0.521374,-0.15256 -0.990851,-0.36449 -1.377743,-0.62192 l -0.0746,-0.0496 0.584184,-0.002 c 0.321302,-0.001 0.812956,7.9e-4 1.092567,0.004 l 0.508384,0.006 0.0149,0.038 c 0.02879,0.0733 0.0278,0.0759 -0.03358,0.0882 -0.03285,0.007 -0.09469,0.0311 -0.156596,0.0621 -0.07999,0.0401 -0.11598,0.0641 -0.165005,0.10984 -0.100536,0.0939 -0.186087,0.23841 -0.213415,0.36054 -0.0075,0.0335 -0.01437,0.0469 -0.02381,0.0466 -0.0073,-2.7e-4 -0.07718,-0.0192 -0.155273,-0.042 z"
         style="fill:#9a3324;fill-opacity:1;stroke:none;stroke-width:0.00615562;stroke-linecap:round;stroke-linejoin:round;stroke-miterlimit:4;stroke-dasharray:none;stroke-opacity:1;paint-order:fill markers stroke" />
      <path
         inkscape:connector-curvature="0"
         id="path5705"
         d="m 34.296167,154.22417 c -0.06957,-0.26602 -0.236929,-0.45655 -0.476094,-0.54199 -0.02871,-0.0103 -0.05205,-0.0228 -0.05186,-0.028 1.85e-4,-0.005 0.009,-0.0337 0.01953,-0.0636 l 0.01918,-0.0543 0.318731,5e-5 c 0.175302,3e-5 0.642868,0.001 1.03904,0.002 l 0.720312,0.002 -0.07928,0.0529 c -0.387561,0.25877 -0.84641,0.466 -1.352986,0.61106 -0.07219,0.0207 -0.135903,0.0376 -0.141581,0.0376 -0.0057,0 -0.01244,-0.008 -0.015,-0.0179 z"
         style="fill:#9a3324;fill-opacity:1;stroke:none;stroke-width:0.00615562;stroke-linecap:round;stroke-linejoin:round;stroke-miterlimit:4;stroke-dasharray:none;stroke-opacity:1;paint-order:fill markers stroke" />
      <circle
         transform="scale(-1,1)"
         r="0.61337352"
         cy="151.03622"
         cx="-29.845945"
         id="path821-6-6-3"
         style="fill:#ffffff;fill-opacity:1;stroke:#000000;stroke-width:0.19473402;stroke-linejoin:round;stroke-miterlimit:4;stroke-dasharray:none;stroke-opacity:1;paint-order:fill markers stroke" />
      <circle
         transform="scale(-1,1)"
         r="0.61337352"
         cy="151.02826"
         cx="-37.352921"
         id="path821-6-6"
         style="fill:#ffffff;fill-opacity:1;stroke:#000000;stroke-width:0.19473402;stroke-linejoin:round;stroke-miterlimit:4;stroke-dasharray:none;stroke-opacity:1;paint-order:fill markers stroke" />
      <path
         transform="matrix(0.26458333,0,0,0.26458333,28.606038,145.18706)"
         inkscape:connector-curvature="0"
         id="path845"
         d="m 15.818538,16.067553 c -0.0017,-0.205715 -0.05645,-0.439231 -0.147288,-0.627642 -0.03481,-0.07221 -0.06763,-0.140318 -0.07292,-0.151355 -0.02295,-0.04788 0.444463,0.07368 0.672084,0.174788 l 0.128891,0.05725 -0.03868,0.06143 c -0.08149,0.129391 -0.2776,0.379859 -0.40638,0.519015 l -0.13427,0.145089 -0.0014,-0.178571 z"
         style="fill:#fcffff;fill-opacity:1;stroke:none;stroke-width:0.0227784;stroke-linecap:round;stroke-linejoin:round;stroke-miterlimit:4;stroke-dasharray:none;stroke-opacity:1;paint-order:fill markers stroke" />
      <path
         transform="matrix(0.26458333,0,0,0.26458333,28.606038,145.18706)"
         inkscape:connector-curvature="0"
         id="path847"
         d="m 13.35135,16.946577 c -0.224075,-0.05147 -0.61384,-0.199381 -0.61384,-0.232942 0,-0.04554 0.303338,-0.441155 0.440792,-0.574892 l 0.110367,-0.107381 0.01418,0.199767 c 0.01539,0.216781 0.09258,0.492144 0.180986,0.645576 l 0.05466,0.09487 -0.04893,-0.0022 c -0.02691,-0.0012 -0.08911,-0.01147 -0.138214,-0.02275 z"
         style="fill:#fcffff;fill-opacity:1;stroke:none;stroke-width:0.0227784;stroke-linecap:round;stroke-linejoin:round;stroke-miterlimit:4;stroke-dasharray:none;stroke-opacity:1;paint-order:fill markers stroke" />
      <path
         transform="matrix(0.26458333,0,0,0.26458333,28.606038,145.18706)"
         inkscape:connector-curvature="0"
         id="path849"
         d="m 14.121294,16.928394 c -0.180916,-0.05503 -0.325786,-0.198435 -0.405588,-0.401481 -0.07124,-0.181267 -0.07267,-0.532059 -0.0027,-0.662853 0.106818,-0.19967 0.26587,-0.329736 0.538874,-0.440667 0.335186,-0.136199 0.657952,-0.158161 0.863321,-0.05874 0.290702,0.140726 0.449126,0.691587 0.291533,1.013696 -0.116304,0.237716 -0.412831,0.433682 -0.794767,0.525239 -0.191544,0.04592 -0.388538,0.05588 -0.490673,0.02481 z m 0.598352,-0.300813 c 0.07723,-0.04034 0.16676,-0.136967 0.219025,-0.236367 0.0298,-0.05667 0.04123,-0.127292 0.04161,-0.25716 6.33e-4,-0.21322 -0.05898,-0.354234 -0.196953,-0.465907 -0.07711,-0.06241 -0.100883,-0.06934 -0.237783,-0.06934 -0.1369,0 -0.160671,0.0069 -0.237783,0.06934 -0.173636,0.140535 -0.247055,0.401688 -0.17865,0.635455 0.04098,0.140044 0.148451,0.280771 0.247288,0.323808 0.09067,0.03948 0.267833,0.03957 0.343245,1.72e-4 z"
         style="fill:#fcffff;fill-opacity:1;stroke:none;stroke-width:0.0227784;stroke-linecap:round;stroke-linejoin:round;stroke-miterlimit:4;stroke-dasharray:none;stroke-opacity:1;paint-order:fill markers stroke" />
      <path
         transform="matrix(0.26458333,0,0,0.26458333,28.606038,145.18706)"
         inkscape:connector-curvature="0"
         id="path851"
         d="m 14.479702,16.202831 c -0.067,-0.08073 0.02118,-0.229981 0.104906,-0.177555 0.08148,0.05102 0.05192,0.209688 -0.03906,0.209688 -0.02155,0 -0.05118,-0.01446 -0.06584,-0.03213 z"
         style="fill:#fcffff;fill-opacity:1;stroke:none;stroke-width:0.0227784;stroke-linecap:round;stroke-linejoin:round;stroke-miterlimit:4;stroke-dasharray:none;stroke-opacity:1;paint-order:fill markers stroke" />
      <path
         transform="matrix(0.26458333,0,0,0.26458333,28.606038,145.18706)"
         inkscape:connector-curvature="0"
         id="path853"
         d="M 21.818334,16.087622 C 21.670358,15.933913 21.58282,15.82623 21.462196,15.64953 l -0.08727,-0.127844 0.0842,-0.03615 c 0.272903,-0.117163 0.680408,-0.235464 0.70981,-0.206063 0.0068,0.0068 -0.0075,0.04627 -0.03176,0.08772 -0.0849,0.145025 -0.160915,0.419966 -0.176723,0.639229 l -0.01535,0.212874 z"
         style="fill:#fcffff;fill-opacity:1;stroke:none;stroke-width:0.0227784;stroke-linecap:round;stroke-linejoin:round;stroke-miterlimit:4;stroke-dasharray:none;stroke-opacity:1;paint-order:fill markers stroke" />
      <path
         transform="matrix(0.26458333,0,0,0.26458333,28.606038,145.18706)"
         inkscape:connector-curvature="0"
         id="path855"
         d="m 24.255367,16.963975 c 0,-0.0042 0.02963,-0.06696 0.06585,-0.139509 0.08959,-0.179467 0.136096,-0.362576 0.150985,-0.594478 0.0096,-0.149429 0.01916,-0.190956 0.04114,-0.178572 0.05008,0.02822 0.319792,0.345057 0.434151,0.510005 l 0.110267,0.159046 -0.127759,0.05654 c -0.244698,0.108297 -0.674635,0.227448 -0.674635,0.186965 z"
         style="fill:#fcffff;fill-opacity:1;stroke:none;stroke-width:0.0227784;stroke-linecap:round;stroke-linejoin:round;stroke-miterlimit:4;stroke-dasharray:none;stroke-opacity:1;paint-order:fill markers stroke" />
      <path
         transform="matrix(0.26458333,0,0,0.26458333,28.606038,145.18706)"
         inkscape:connector-curvature="0"
         id="path857"
         d="m 23.172778,16.907815 c -0.555887,-0.144979 -0.834912,-0.396397 -0.856106,-0.771403 -0.01996,-0.353186 0.117693,-0.647486 0.364742,-0.779808 0.07562,-0.04051 0.12435,-0.04763 0.312793,-0.04576 0.186642,0.0019 0.255141,0.01325 0.418076,0.06955 0.356341,0.123116 0.598919,0.315781 0.67362,0.535015 0.09051,0.26564 0.01116,0.655311 -0.173436,0.851645 -0.161273,0.171529 -0.427479,0.222188 -0.739689,0.140761 z m 0.229903,-0.280234 c 0.077,-0.04022 0.166517,-0.136683 0.219365,-0.236367 0.06199,-0.116934 0.05824,-0.425965 -0.0066,-0.546875 -0.125748,-0.234341 -0.353781,-0.32001 -0.564989,-0.21226 -0.15435,0.07874 -0.268261,0.287139 -0.268261,0.490774 0,0.202945 0.122671,0.423787 0.279018,0.502311 0.08442,0.0424 0.262562,0.04366 0.34151,0.0024 z"
         style="fill:#fcffff;fill-opacity:1;stroke:none;stroke-width:0.0227784;stroke-linecap:round;stroke-linejoin:round;stroke-miterlimit:4;stroke-dasharray:none;stroke-opacity:1;paint-order:fill markers stroke" />
      <path
         transform="matrix(0.26458333,0,0,0.26458333,28.606038,145.18706)"
         inkscape:connector-curvature="0"
         id="path861"
         d="m 23.162738,16.202831 c -0.06704,-0.08078 0.02125,-0.230095 0.104906,-0.177414 0.04595,0.02894 0.05943,0.08055 0.04061,0.155509 -0.01557,0.06204 -0.101476,0.07498 -0.14552,0.02191 z"
         style="fill:#fcffff;fill-opacity:1;stroke:none;stroke-width:0.0227784;stroke-linecap:round;stroke-linejoin:round;stroke-miterlimit:4;stroke-dasharray:none;stroke-opacity:1;paint-order:fill markers stroke" />
    </g>
  </g>
</svg>
