<?xml version="1.0" encoding="UTF-8" standalone="no"?>
<!-- Created with Inkscape (http://www.inkscape.org/) -->

<svg
   xmlns:dc="http://purl.org/dc/elements/1.1/"
   xmlns:cc="http://creativecommons.org/ns#"
   xmlns:rdf="http://www.w3.org/1999/02/22-rdf-syntax-ns#"
   xmlns:svg="http://www.w3.org/2000/svg"
   xmlns="http://www.w3.org/2000/svg"
   xmlns:sodipodi="http://sodipodi.sourceforge.net/DTD/sodipodi-0.dtd"
   xmlns:inkscape="http://www.inkscape.org/namespaces/inkscape"
   width="33.281193mm"
   height="9.8848143mm"
   viewBox="0 0 33.281193 9.8848143"
   version="1.1"
   id="svg8"
   inkscape:version="0.92.4 5da689c313, 2019-01-14"
   sodipodi:docname="logo.svg">
  <defs
     id="defs2" />
  <sodipodi:namedview
     id="base"
     pagecolor="#ffffff"
     bordercolor="#666666"
     borderopacity="1.0"
     inkscape:pageopacity="0.0"
     inkscape:pageshadow="2"
     inkscape:zoom="5.6"
     inkscape:cx="70.105076"
     inkscape:cy="20.965906"
     inkscape:document-units="mm"
     inkscape:current-layer="text5743"
     showgrid="true"
     showguides="true"
     inkscape:window-width="920"
     inkscape:window-height="998"
     inkscape:window-x="967"
     inkscape:window-y="49"
     inkscape:window-maximized="0"
     fit-margin-top="0"
     fit-margin-left="0"
     fit-margin-right="0"
     fit-margin-bottom="0"
     units="px" />
  <metadata
     id="metadata5">
    <rdf:RDF>
      <cc:Work
         rdf:about="">
        <dc:format>image/svg+xml</dc:format>
        <dc:type
           rdf:resource="http://purl.org/dc/dcmitype/StillImage" />
        <dc:title></dc:title>
      </cc:Work>
    </rdf:RDF>
  </metadata>
  <g
     inkscape:label="Layer 1"
     inkscape:groupmode="layer"
     id="layer1"
     transform="translate(-28.606038,-145.18706)">
    <path
       style="fill:#0072ce;fill-opacity:1;stroke:none;stroke-width:0.02326532;stroke-linecap:round;stroke-linejoin:round;stroke-miterlimit:4;stroke-dasharray:none;stroke-opacity:1;paint-order:fill markers stroke"
       d="m 124.52954,578.62093 c -0.004,-0.0178 -0.10104,-0.2 -0.21502,-0.40496 -1.30694,-2.3502 -3.29175,-4.33225 -5.75647,-5.74848 -0.87569,-0.50317 -2.02731,-1.03585 -2.9456,-1.36248 -0.23842,-0.0848 -0.43369,-0.16129 -0.43394,-0.16997 -5.5e-4,-0.0192 9.34654,-1.45932 9.36323,-1.44263 0.006,0.006 0.008,2.07032 0.004,4.58631 -0.004,2.51598 -0.0116,4.55997 -0.0159,4.54221 z"
       id="path5689"
       inkscape:connector-curvature="0"
       transform="scale(0.26458333)" />
    <path
       style="fill:none;stroke:#ffffff;stroke-width:0.36500001;stroke-linecap:butt;stroke-linejoin:miter;stroke-miterlimit:4;stroke-dasharray:none;stroke-opacity:1"
       d="m 33.14379,150.52241 -3.236425,0.48428"
       id="path5635-7"
       inkscape:connector-curvature="0"
       sodipodi:nodetypes="cc" />
    <path
       style="fill:#0072ce;fill-opacity:1;stroke:none;stroke-width:0.02326532;stroke-linecap:round;stroke-linejoin:round;stroke-miterlimit:4;stroke-dasharray:none;stroke-opacity:1;paint-order:fill markers stroke"
       d="m 125.58283,574.11995 c -0.0123,-2.51974 -0.0179,-4.5858 -0.0125,-4.59124 0.0107,-0.0107 9.23902,1.36322 9.36864,1.39485 0.0537,0.0131 0.0638,0.0242 0.0316,0.0348 -0.2597,0.0852 -1.14847,0.43031 -1.49945,0.58222 -3.41817,1.47948 -6.14239,3.89999 -7.69464,6.83681 l -0.17121,0.32392 z"
       id="path5687"
       inkscape:connector-curvature="0"
       transform="scale(0.26458333)" />
    <circle
       style="fill:#ffffff;fill-opacity:1;stroke:#000000;stroke-width:0.19473402;stroke-linejoin:round;stroke-miterlimit:4;stroke-dasharray:none;stroke-opacity:1;paint-order:fill markers stroke"
       id="path821"
       cx="33.066692"
       cy="145.8978"
       r="0.61337352" />
    <circle
       style="fill:none;fill-opacity:1;stroke:#000000;stroke-width:0.19473402;stroke-linejoin:round;stroke-miterlimit:4;stroke-dasharray:none;stroke-opacity:1;paint-order:fill markers stroke"
       id="path821-6"
       cy="151.03743"
       cx="29.299421"
       r="0" />
    <circle
       style="fill:#ffffff;fill-opacity:1;stroke:#000000;stroke-width:0.19473402;stroke-linejoin:round;stroke-miterlimit:4;stroke-dasharray:none;stroke-opacity:1;paint-order:fill markers stroke"
       id="path821-2"
       cx="33.058746"
       cy="154.36113"
       r="0.61337352" />
    <path
       style="fill:none;stroke:#000000;stroke-width:0.26499999;stroke-linecap:butt;stroke-linejoin:miter;stroke-miterlimit:4;stroke-dasharray:none;stroke-opacity:1"
       d="m 29.907365,151.00669 c 2.787575,0.66146 3.189176,2.76396 3.189176,2.76396"
       id="path952"
       inkscape:connector-curvature="0" />
    <path
       style="fill:none;stroke:#ffffff;stroke-width:0.36500001;stroke-linecap:butt;stroke-linejoin:miter;stroke-miterlimit:4;stroke-dasharray:none;stroke-opacity:1"
       d="m 33.049292,150.52241 3.236425,0.48428"
       id="path5635"
       inkscape:connector-curvature="0"
       sodipodi:nodetypes="cc" />
    <path
       style="fill:none;stroke:#000000;stroke-width:0.26499999;stroke-linecap:butt;stroke-linejoin:miter;stroke-miterlimit:4;stroke-dasharray:none;stroke-opacity:1"
       d="m 36.285717,151.00669 c -2.787575,0.66146 -3.189176,2.76396 -3.189176,2.76396"
       id="path952-1"
       inkscape:connector-curvature="0" />
    <path
       style="fill:none;stroke:#000000;stroke-width:0.26499999;stroke-linecap:butt;stroke-linejoin:miter;stroke-miterlimit:4;stroke-dasharray:none;stroke-opacity:1"
       d="m 32.398456,154.36409 c -2.78758,-0.66146 -3.18918,-2.76396 -3.18918,-2.76396"
       id="path952-2"
       inkscape:connector-curvature="0" />
    <path
       style="fill:none;stroke:#000000;stroke-width:0.26499999;stroke-linecap:butt;stroke-linejoin:miter;stroke-miterlimit:4;stroke-dasharray:none;stroke-opacity:1"
       d="m 33.688319,154.3759 c 2.78758,-0.66146 3.18918,-2.76396 3.18918,-2.76396"
       id="path952-1-7"
       inkscape:connector-curvature="0" />
    <path
       style="fill:none;stroke:#000000;stroke-width:0.26499999;stroke-linecap:butt;stroke-linejoin:miter;stroke-miterlimit:4;stroke-dasharray:none;stroke-opacity:1"
       d="m 29.399647,150.43607 c 3.023486,-2.7061 3.173826,-4.15938 3.173826,-4.15938"
       id="path1005"
       inkscape:connector-curvature="0"
       sodipodi:nodetypes="cc" />
    <path
       style="fill:none;stroke:#000000;stroke-width:0.26499999;stroke-linecap:butt;stroke-linejoin:miter;stroke-miterlimit:4;stroke-dasharray:none;stroke-opacity:1"
       d="M 36.715426,150.42982 C 33.69194,147.72372 33.5416,146.27044 33.5416,146.27044"
       id="path1005-0"
       inkscape:connector-curvature="0"
       sodipodi:nodetypes="cc" />
    <path
       style="fill:none;stroke:#000000;stroke-width:0.27000001;stroke-linecap:butt;stroke-linejoin:miter;stroke-miterlimit:4;stroke-dasharray:none;stroke-opacity:1"
       d="m 33.074604,146.51055 0.02193,7.2601"
       id="path1022"
       inkscape:connector-curvature="0" />
    <path
       id="path1165-8"
       d="m 32.505098,149.22555 c 0.0011,7.5e-4 0.0018,8.6e-4 0.0028,0.001 0.0088,0.007 0.01552,0.0178 0.01857,0.0301 0.0034,0.014 0.0022,0.0281 -0.0033,0.0402 -0.0062,0.014 -0.15756,0.34216 -0.517732,0.45952 -0.360176,0.11734 -0.640078,-0.0703 -0.651815,-0.0784 -0.02142,-0.0147 -0.02951,-0.0472 -0.01809,-0.0725 0.459675,-0.58028 0.513278,-0.59646 1.169555,-0.38085 z m -0.525761,0.42735 c 0.156246,-0.051 0.219121,-0.14231 0.185594,-0.2768 -0.03353,-0.13456 -0.129097,-0.17424 -0.28534,-0.12336 -0.156254,0.051 -0.219129,0.14232 -0.185604,0.2768 0.03354,0.13456 0.1291,0.17426 0.28535,0.12336 z m 0.213276,-0.43043 c 0.0248,0.0337 0.04387,0.0759 0.05642,0.12616 0.01249,0.0501 0.01571,0.0972 0.01029,0.14077 0.07933,-0.0731 0.131832,-0.14909 0.160328,-0.19653 -0.04608,-0.0232 -0.125767,-0.0564 -0.227118,-0.0706 z m -0.5263,0.46073 c -0.0248,-0.0337 -0.04387,-0.0757 -0.05642,-0.12616 -0.01249,-0.0501 -0.01571,-0.0973 -0.01029,-0.14077 -0.07933,0.073 -0.131823,0.1491 -0.160318,0.19653 0.04608,0.0232 0.125754,0.0564 0.227104,0.0706 z"
       inkscape:connector-curvature="0"
       style="stroke-width:0.00488633"
       sodipodi:nodetypes="ccscscccssscscscccccscccc" />
    <path
       id="path1165-8-5"
       d="m 33.64411,149.22555 c -0.0011,7.4e-4 -0.0018,8.5e-4 -0.0028,0.001 -0.0088,0.007 -0.01552,0.0178 -0.01857,0.0301 -0.0034,0.014 -0.0022,0.0281 0.0033,0.0402 0.0062,0.014 0.15756,0.34216 0.517732,0.45952 0.360177,0.11734 0.640079,-0.0703 0.651816,-0.0784 0.02142,-0.0147 0.02951,-0.0472 0.01809,-0.0725 -0.459675,-0.58028 -0.513278,-0.59646 -1.169555,-0.38085 z m 0.525761,0.42735 c -0.156246,-0.051 -0.219121,-0.14231 -0.185594,-0.2768 0.03353,-0.13456 0.129097,-0.17424 0.28534,-0.12336 0.156254,0.051 0.219129,0.14232 0.185604,0.2768 -0.03354,0.13456 -0.1291,0.17426 -0.28535,0.12336 z m -0.213276,-0.43043 c -0.0248,0.0337 -0.04387,0.0759 -0.05642,0.12616 -0.01249,0.0501 -0.01571,0.0972 -0.01029,0.14077 -0.07933,-0.0731 -0.131832,-0.14909 -0.160328,-0.19653 0.04608,-0.0232 0.125767,-0.0564 0.227118,-0.0706 z m 0.5263,0.46073 c 0.0248,-0.0337 0.04387,-0.0757 0.05642,-0.12616 0.01249,-0.0501 0.01571,-0.0973 0.01029,-0.14077 0.07933,0.073 0.131823,0.1491 0.160318,0.19653 -0.04608,0.0232 -0.125754,0.0564 -0.227104,0.0706 z"
       inkscape:connector-curvature="0"
       style="stroke-width:0.00488633"
       sodipodi:nodetypes="ccscscccssscscscccccscccc" />
    <path
       id="path1167-7"
       d="m 31.925653,149.31207 c 0.06389,0 0.115862,0.0634 0.115862,0.14135 0,0.078 -0.05197,0.14136 -0.115862,0.14136 -0.06389,0 -0.115862,-0.0634 -0.115862,-0.14136 0,-0.078 0.05197,-0.14135 0.115862,-0.14135 z m 0,0.17603 c 0.01567,0 0.02842,-0.0155 0.02842,-0.0347 0,-0.019 -0.01275,-0.0347 -0.02842,-0.0347 -0.01568,0 -0.02842,0.0155 -0.02842,0.0347 5e-6,0.0192 0.01275,0.0347 0.02842,0.0347 z"
       inkscape:connector-curvature="0"
       style="stroke:none;stroke-width:0.00488633;stroke-opacity:1" />
    <path
       id="path1167-7-9"
       d="m 34.223555,149.31207 c -0.06389,0 -0.115862,0.0634 -0.115862,0.14135 0,0.078 0.05197,0.14136 0.115862,0.14136 0.06389,0 0.115862,-0.0634 0.115862,-0.14136 0,-0.078 -0.05197,-0.14135 -0.115862,-0.14135 z m 0,0.17603 c -0.01567,0 -0.02842,-0.0155 -0.02842,-0.0347 0,-0.019 0.01275,-0.0347 0.02842,-0.0347 0.01568,0 0.02842,0.0155 0.02842,0.0347 -5e-6,0.0192 -0.01275,0.0347 -0.02842,0.0347 z"
       inkscape:connector-curvature="0"
       style="stroke-width:0.00488633" />
    <path
       style="fill:none;stroke:#000000;stroke-width:0.13094598;stroke-linecap:round;stroke-linejoin:miter;stroke-miterlimit:4;stroke-dasharray:none;stroke-opacity:1"
       d="m 32.468782,148.96847 c -0.79196,-0.26048 -1.218676,0.48789 -1.218676,0.48789"
       id="path5588"
       inkscape:connector-curvature="0"
       sodipodi:nodetypes="cc" />
    <path
       style="fill:none;stroke:#000000;stroke-width:0.13094598;stroke-linecap:round;stroke-linejoin:miter;stroke-miterlimit:4;stroke-dasharray:none;stroke-opacity:1"
       d="m 33.680426,148.96847 c 0.79196,-0.26048 1.218676,0.48789 1.218676,0.48789"
       id="path5588-2"
       inkscape:connector-curvature="0"
       sodipodi:nodetypes="cc" />
    <path
       style="fill:#0072ce;fill-opacity:1;stroke:none;stroke-width:1.00157475;stroke-linecap:round;stroke-linejoin:round;stroke-miterlimit:4;stroke-dasharray:none;stroke-opacity:1;paint-order:fill markers stroke"
       d="m 127.55275,582.7206 c -0.22916,-0.86748 -0.87397,-1.56058 -1.73018,-1.85976 -0.10962,-0.0383 -0.20587,-0.0762 -0.21387,-0.0842 -0.0263,-0.0263 0.23712,-0.74704 0.44753,-1.22457 0.68637,-1.55768 1.86619,-3.1888 3.16998,-4.38255 1.44298,-1.32118 3.06158,-2.32731 5.03131,-3.12751 0.40893,-0.16613 1.60514,-0.57349 2.02792,-0.6906 l 0.22585,-0.0626 0.0523,0.2081 c 0.24659,0.98169 1.08246,1.76573 2.09477,1.96489 0.10722,0.0211 0.19495,0.0425 0.19495,0.0475 0,0.005 -0.0442,0.13459 -0.0982,0.28789 -0.72536,2.05773 -2.13272,4.0655 -3.92657,5.60172 -1.82025,1.55882 -4.01924,2.69871 -6.65821,3.45141 -0.27642,0.0788 -0.5122,0.14335 -0.52397,0.14335 -0.0118,0 -0.0538,-0.12291 -0.0935,-0.27313 z"
       id="path5691"
       inkscape:connector-curvature="0"
       transform="scale(0.26458333)" />
    <path
       style="fill:#0072ce;fill-opacity:1;stroke:none;stroke-width:0.02326532;stroke-linecap:round;stroke-linejoin:round;stroke-miterlimit:4;stroke-dasharray:none;stroke-opacity:1;paint-order:fill markers stroke"
       d="m 121.80697,582.86392 c -2.71916,-0.74962 -5.04503,-1.9438 -6.89937,-3.54237 -0.44585,-0.38436 -1.31369,-1.27047 -1.65931,-1.69425 -0.66941,-0.8208 -1.22047,-1.66386 -1.66207,-2.54277 -0.26555,-0.52851 -0.65451,-1.50277 -0.61553,-1.54175 0.0106,-0.0106 0.065,-0.0192 0.12092,-0.0192 0.14751,0 0.61688,-0.14264 0.84417,-0.25655 0.71279,-0.35721 1.21229,-0.97944 1.41586,-1.76375 0.0383,-0.14758 0.0714,-0.27146 0.0736,-0.27528 0.009,-0.0155 1.10546,0.31408 1.54739,0.46511 3.96867,1.35638 6.98266,3.78161 8.74548,7.0371 0.27661,0.51083 0.55803,1.14246 0.73576,1.65136 0.12821,0.36712 0.12881,0.37092 0.0586,0.37092 -0.2844,0 -0.94872,0.29935 -1.29117,0.58182 -0.41402,0.3415 -0.77136,0.91279 -0.89482,1.43059 -0.03,0.12587 -0.0562,0.22805 -0.0582,0.22705 -0.002,-10e-4 -0.2096,-0.0586 -0.46135,-0.128 z"
       id="path5693"
       inkscape:connector-curvature="0"
       transform="scale(0.26458333)" />
    <path
       style="fill:#ffc72c;fill-opacity:1;stroke:none;stroke-width:0.02326532;stroke-linecap:round;stroke-linejoin:round;stroke-miterlimit:4;stroke-dasharray:none;stroke-opacity:1;paint-order:fill markers stroke"
       d="m 130.97726,569.2973 -5.398,-0.81074 -0.023,-4.1343 c -0.0127,-2.27387 -0.0198,-5.51604 -0.0158,-7.20483 l 0.007,-3.07051 0.30577,-0.1051 c 0.16817,-0.0578 0.39648,-0.16198 0.50734,-0.23149 l 0.20158,-0.12639 0.0875,0.27155 c 0.23623,0.73314 0.80079,1.94729 1.34456,2.89163 1.90524,3.30871 5.10016,7.06296 9.39943,11.04497 0.31655,0.29318 0.57496,0.54178 0.57425,0.55242 -7.1e-4,0.0107 -0.10239,0.0823 -0.22596,0.15927 -0.48247,0.30044 -0.90902,0.8202 -1.08724,1.32481 -0.0864,0.24459 -0.0943,0.2554 -0.18496,0.25249 -0.0521,-0.002 -2.5238,-0.36788 -5.4927,-0.81378 z m -0.60582,-3.16286 c 0.31473,-0.0471 0.62834,-0.14237 0.89556,-0.27218 0.36094,-0.17533 0.42199,-0.28971 0.26806,-0.5022 -0.19911,-0.27487 -0.75574,-0.92551 -1.01313,-1.18423 -0.77364,-0.77766 -1.3052,-0.84077 -2.88657,-0.34269 -0.27897,0.0879 -0.51848,0.17692 -0.53222,0.19789 -0.0699,0.10661 -0.059,0.18526 0.0543,0.3926 0.65832,1.20499 1.96065,1.89821 3.21405,1.71081 z m 1.71211,-1.08527 c 0.11827,-0.11827 0.10056,-0.23021 -0.0785,-0.49597 -0.56288,-0.83546 -1.44749,-1.52339 -2.32895,-1.81112 -0.61102,-0.19946 -1.44414,-0.2253 -2.08562,-0.0647 -0.48274,0.12087 -0.54335,0.16213 -0.54335,0.36984 0,0.10113 0.1206,0.24852 0.20335,0.24852 0.0266,0 0.17997,-0.0341 0.34079,-0.0758 0.40679,-0.10545 0.84029,-0.1531 1.16049,-0.12755 0.5744,0.0458 1.18611,0.26928 1.69544,0.61937 0.30999,0.21306 0.79806,0.69338 1.03675,1.02029 0.10142,0.13889 0.21249,0.2845 0.24683,0.32356 0.0865,0.0984 0.25092,0.0954 0.35276,-0.006 z"
       id="path5695"
       inkscape:connector-curvature="0"
       transform="scale(0.26458333)" />
    <path
       style="fill:#ffc72c;fill-opacity:1;stroke:none;stroke-width:0.02326532;stroke-linecap:round;stroke-linejoin:round;stroke-miterlimit:4;stroke-dasharray:none;stroke-opacity:1;paint-order:fill markers stroke"
       d="m 113.27568,569.93003 c -0.21406,-0.60432 -0.71679,-1.18065 -1.28441,-1.47246 l -0.10877,-0.0559 0.12455,-0.11181 c 1.46167,-1.31223 3.77477,-3.62154 5.08133,-5.073 3.06365,-3.40342 5.29383,-6.76912 6.12318,-9.24085 l 0.13489,-0.40201 0.0747,0.0576 c 0.21133,0.16308 0.59649,0.33944 0.90074,0.41242 l 0.15792,0.0379 0.021,3.28898 c 0.0115,1.80895 0.021,5.03952 0.021,7.17905 l 1e-5,3.89007 -0.071,0.0163 c -0.0391,0.009 -2.52144,0.39275 -5.51638,0.8529 -2.99495,0.46016 -5.47385,0.84316 -5.50867,0.85111 -0.0542,0.0124 -0.0758,-0.0209 -0.15,-0.23026 z m 7.49419,-3.85198 c 0.82989,-0.21747 1.54623,-0.76413 2.02294,-1.54375 0.17411,-0.28475 0.19899,-0.44875 0.0795,-0.52455 -0.0863,-0.0548 -0.66064,-0.24053 -1.15772,-0.37442 -0.32708,-0.0881 -0.41363,-0.0987 -0.82543,-0.10062 l -0.46004,-0.002 -0.28121,0.13931 c -0.24579,0.12177 -0.32919,0.18736 -0.66224,0.52086 -0.41566,0.41623 -1.08802,1.23087 -1.08802,1.31827 0,0.13675 0.0764,0.21537 0.32816,0.3377 0.50256,0.24421 0.87491,0.3241 1.42383,0.30549 0.23901,-0.008 0.46788,-0.0362 0.62018,-0.0761 z m -2.46808,-1.0382 c 0.0367,-0.0477 0.16361,-0.21466 0.28202,-0.37092 0.53975,-0.71228 1.26576,-1.23738 2.00633,-1.45111 0.60142,-0.17357 1.15682,-0.17258 1.82581,0.003 0.26566,0.0698 0.32239,0.0757 0.40369,0.0421 0.1101,-0.0456 0.15532,-0.11649 0.15532,-0.24347 0,-0.17673 -0.13675,-0.25083 -0.69448,-0.37636 -0.33297,-0.0749 -1.06751,-0.09 -1.41741,-0.029 -0.95865,0.16706 -1.85894,0.71235 -2.55307,1.54633 -0.31747,0.38145 -0.44894,0.59164 -0.44894,0.71779 0,0.23393 0.30042,0.34394 0.44073,0.16139 z"
       id="path5697"
       inkscape:connector-curvature="0"
       transform="scale(0.26458333)" />
    <path
       style="fill:#9a3324;fill-opacity:1;stroke:none;stroke-width:0.02326532;stroke-linecap:round;stroke-linejoin:round;stroke-miterlimit:4;stroke-dasharray:none;stroke-opacity:1;paint-order:fill markers stroke"
       d="m 121.63335,582.80134 c -1.97055,-0.57661 -3.74495,-1.37758 -5.20722,-2.35057 l -0.28195,-0.18761 2.20794,-0.007 c 1.21437,-0.004 3.07259,0.003 4.12939,0.0158 l 1.92145,0.0231 0.0563,0.14342 c 0.10882,0.27719 0.10506,0.28706 -0.12692,0.33348 -0.12416,0.0249 -0.35789,0.1176 -0.59186,0.23488 -0.30234,0.15154 -0.43835,0.24207 -0.62364,0.41511 -0.37998,0.35487 -0.70332,0.9011 -0.80661,1.36267 -0.0283,0.12663 -0.0543,0.17733 -0.09,0.17598 -0.0276,-10e-4 -0.29171,-0.0726 -0.58686,-0.15893 z"
       id="path5703"
       inkscape:connector-curvature="0"
       transform="scale(0.26458333)" />
    <path
       style="fill:#9a3324;fill-opacity:1;stroke:none;stroke-width:0.02326532;stroke-linecap:round;stroke-linejoin:round;stroke-miterlimit:4;stroke-dasharray:none;stroke-opacity:1;paint-order:fill markers stroke"
       d="m 127.62331,582.89452 c -0.26293,-1.00546 -0.89548,-1.72557 -1.79941,-2.04848 -0.10851,-0.0388 -0.19671,-0.0863 -0.196,-0.10571 7e-4,-0.0194 0.0339,-0.12756 0.0738,-0.24041 l 0.0725,-0.20519 1.20465,2e-4 c 0.66256,1.1e-4 2.42974,0.004 3.92708,0.008 l 2.72244,0.008 -0.29965,0.20008 c -1.4648,0.97803 -3.19903,1.76127 -5.11365,2.30952 -0.27285,0.0781 -0.51365,0.14205 -0.53511,0.14205 -0.0215,0 -0.047,-0.0304 -0.0567,-0.0676 z"
       id="path5705"
       inkscape:connector-curvature="0"
       transform="scale(0.26458333)" />
    <g
       aria-label="MALTA"
       transform="scale(1.0089906,0.99108955)"
       style="font-style:normal;font-weight:normal;font-size:14.36356258px;line-height:1.25;font-family:sans-serif;letter-spacing:0px;word-spacing:0px;fill:#000000;fill-opacity:1;stroke:none;stroke-width:0.35908908"
       id="text5743">
      <path
         d="m 41.39045,147.1517 v 2.07697 h -0.340416 v -1.34156 q 0,-0.0804 0.0086,-0.1738 l -0.627688,1.17925 q -0.04453,0.0847 -0.136454,0.0847 h -0.05458 q -0.09193,0 -0.136454,-0.0847 l -0.63487,-1.18356 q 0.0043,0.0474 0.0072,0.0934 0.0029,0.046 0.0029,0.0847 v 1.34156 h -0.340417 v -2.07697 h 0.291581 q 0.02585,0 0.04453,0.001 0.01867,0.001 0.03304,0.007 0.0158,0.006 0.02729,0.0187 0.01293,0.0129 0.02442,0.0345 l 0.621942,1.15339 q 0.02442,0.046 0.04453,0.0948 0.02154,0.0488 0.04165,0.10055 0.02011,-0.0531 0.04166,-0.10198 0.02154,-0.0503 0.04596,-0.0962 l 0.613324,-1.15052 q 0.01149,-0.0215 0.02442,-0.0345 0.01293,-0.0129 0.02729,-0.0187 0.0158,-0.006 0.03447,-0.007 0.01867,-0.001 0.04453,-0.001 z"
         style="font-style:normal;font-variant:normal;font-weight:bold;font-stretch:normal;font-size:2.87271261px;font-family:Lato;-inkscape-font-specification:'Lato Bold';stroke-width:0.35908908"
         id="path913" />
      <path
         d="m 42.950332,148.44442 -0.252798,-0.69089 q -0.01867,-0.046 -0.03878,-0.10916 -0.02011,-0.0632 -0.04022,-0.13646 -0.01867,0.0733 -0.03878,0.13789 -0.02011,0.0632 -0.03878,0.1106 l -0.251363,0.68802 z m 0.682269,0.78425 h -0.298762 q -0.05027,0 -0.08187,-0.0244 -0.0316,-0.0258 -0.0474,-0.0632 l -0.155126,-0.42372 h -0.860378 l -0.155126,0.42372 q -0.01149,0.033 -0.04453,0.0603 -0.03304,0.0273 -0.08187,0.0273 h -0.301635 l 0.817286,-2.07697 h 0.393562 z"
         style="font-style:normal;font-variant:normal;font-weight:bold;font-stretch:normal;font-size:2.87271261px;font-family:Lato;-inkscape-font-specification:'Lato Bold';stroke-width:0.35908908"
         id="path915" />
      <path
         d="m 45.064648,148.9098 v 0.31887 h -1.216593 v -2.07697 h 0.386379 v 1.7581 z"
         style="font-style:normal;font-variant:normal;font-weight:bold;font-stretch:normal;font-size:2.87271261px;font-family:Lato;-inkscape-font-specification:'Lato Bold';stroke-width:0.35908908"
         id="path917" />
      <path
         d="m 46.534042,147.46913 h -0.626251 v 1.75954 h -0.38638 v -1.75954 H 44.89516 v -0.31743 h 1.638882 z"
         style="font-style:normal;font-variant:normal;font-weight:bold;font-stretch:normal;font-size:2.87271261px;font-family:Lato;-inkscape-font-specification:'Lato Bold';stroke-width:0.35908908"
         id="path919" />
      <path
         d="m 47.701802,148.44442 -0.252798,-0.69089 q -0.01867,-0.046 -0.03878,-0.10916 -0.02011,-0.0632 -0.04022,-0.13646 -0.01867,0.0733 -0.03878,0.13789 -0.02011,0.0632 -0.03878,0.1106 l -0.251363,0.68802 z m 0.68227,0.78425 h -0.298763 q -0.05027,0 -0.08187,-0.0244 -0.0316,-0.0258 -0.0474,-0.0632 l -0.155126,-0.42372 h -0.860377 l -0.155127,0.42372 q -0.01149,0.033 -0.04453,0.0603 -0.03304,0.0273 -0.08187,0.0273 h -0.301635 l 0.817287,-2.07697 h 0.393561 z"
         style="font-style:normal;font-variant:normal;font-weight:bold;font-stretch:normal;font-size:2.87271261px;font-family:Lato;-inkscape-font-specification:'Lato Bold';stroke-width:0.35908908"
         id="path921" />
    </g>
    <g
       aria-label="MATHEMATICAL"
       transform="scale(1.0089906,0.99108955)"
       style="font-style:normal;font-weight:normal;font-size:14.36356258px;line-height:1.25;font-family:sans-serif;letter-spacing:0px;word-spacing:0px;fill:#000000;fill-opacity:1;stroke:none;stroke-width:0.35908908"
       id="text5743-1">
      <path
         d="m 41.297173,150.28253 v 2.07697 h -0.340416 v -1.34156 q 0,-0.0804 0.0086,-0.1738 l -0.627688,1.17925 q -0.04453,0.0847 -0.136454,0.0847 h -0.05458 q -0.09193,0 -0.136454,-0.0847 l -0.63487,-1.18356 q 0.0043,0.0474 0.0072,0.0934 0.0029,0.046 0.0029,0.0847 v 1.34156 h -0.340417 v -2.07697 h 0.291581 q 0.02585,0 0.04453,0.001 0.01867,0.001 0.03304,0.007 0.0158,0.006 0.02729,0.0187 0.01293,0.0129 0.02442,0.0345 l 0.621942,1.15339 q 0.02442,0.046 0.04453,0.0948 0.02155,0.0488 0.04165,0.10055 0.02011,-0.0531 0.04166,-0.10198 0.02154,-0.0503 0.04596,-0.0962 l 0.613324,-1.15052 q 0.01149,-0.0215 0.02442,-0.0345 0.01293,-0.0129 0.02729,-0.0187 0.0158,-0.006 0.03447,-0.007 0.01867,-0.001 0.04453,-0.001 z"
         style="font-style:normal;font-variant:normal;font-weight:bold;font-stretch:normal;font-size:2.87271261px;font-family:Lato;-inkscape-font-specification:'Lato Bold';stroke-width:0.35908908"
         id="path888" />
      <path
         d="m 42.857055,151.57525 -0.252798,-0.69089 q -0.01867,-0.046 -0.03878,-0.10916 -0.02011,-0.0632 -0.04022,-0.13646 -0.01867,0.0733 -0.03878,0.13789 -0.02011,0.0632 -0.03878,0.1106 l -0.251363,0.68802 z m 0.68227,0.78425 h -0.298763 q -0.05027,0 -0.08187,-0.0244 -0.0316,-0.0259 -0.0474,-0.0632 l -0.155126,-0.42373 h -0.860378 l -0.155126,0.42373 q -0.01149,0.033 -0.04453,0.0603 -0.03304,0.0273 -0.08187,0.0273 h -0.301635 l 0.817287,-2.07697 h 0.393561 z"
         style="font-style:normal;font-variant:normal;font-weight:bold;font-stretch:normal;font-size:2.87271261px;font-family:Lato;-inkscape-font-specification:'Lato Bold';stroke-width:0.35908908"
         id="path890" />
      <path
         d="m 45.002973,150.59996 h -0.626251 v 1.75954 h -0.38638 v -1.75954 h -0.626251 v -0.31743 h 1.638882 z"
         style="font-style:normal;font-variant:normal;font-weight:bold;font-stretch:normal;font-size:2.87271261px;font-family:Lato;-inkscape-font-specification:'Lato Bold';stroke-width:0.35908908"
         id="path892" />
      <path
         d="m 47.0268,150.28253 v 2.07697 h -0.387816 v -0.90778 h -0.975286 v 0.90778 h -0.387816 v -2.07697 h 0.387816 v 0.89341 h 0.975286 v -0.89341 z"
         style="font-style:normal;font-variant:normal;font-weight:bold;font-stretch:normal;font-size:2.87271261px;font-family:Lato;-inkscape-font-specification:'Lato Bold';stroke-width:0.35908908"
         id="path894" />
      <path
         d="m 47.877124,150.58991 v 0.57597 h 0.726797 v 0.29733 h -0.726797 v 0.58747 h 0.922141 v 0.30882 h -1.309957 v -2.07697 h 1.309957 v 0.30738 z"
         style="font-style:normal;font-variant:normal;font-weight:bold;font-stretch:normal;font-size:2.87271261px;font-family:Lato;-inkscape-font-specification:'Lato Bold';stroke-width:0.35908908"
         id="path896" />
      <path
         d="m 51.393326,150.28253 v 2.07697 H 51.05291 v -1.34156 q 0,-0.0804 0.0086,-0.1738 l -0.627688,1.17925 q -0.04453,0.0847 -0.136453,0.0847 h -0.05458 q -0.09193,0 -0.136454,-0.0847 l -0.634869,-1.18356 q 0.0043,0.0474 0.0072,0.0934 0.0029,0.046 0.0029,0.0847 v 1.34156 H 49.14112 v -2.07697 h 0.29158 q 0.02585,0 0.04453,0.001 0.01867,0.001 0.03304,0.007 0.0158,0.006 0.02729,0.0187 0.01293,0.0129 0.02442,0.0345 l 0.621942,1.15339 q 0.02442,0.046 0.04453,0.0948 0.02155,0.0488 0.04166,0.10055 0.02011,-0.0531 0.04165,-0.10198 0.02154,-0.0503 0.04596,-0.0962 l 0.613325,-1.15052 q 0.01149,-0.0215 0.02442,-0.0345 0.01293,-0.0129 0.02729,-0.0187 0.0158,-0.006 0.03447,-0.007 0.01867,-0.001 0.04453,-0.001 z"
         style="font-style:normal;font-variant:normal;font-weight:bold;font-stretch:normal;font-size:2.87271261px;font-family:Lato;-inkscape-font-specification:'Lato Bold';stroke-width:0.35908908"
         id="path898" />
      <path
         d="m 52.953208,151.57525 -0.252799,-0.69089 q -0.01867,-0.046 -0.03878,-0.10916 -0.02011,-0.0632 -0.04022,-0.13646 -0.01867,0.0733 -0.03878,0.13789 -0.02011,0.0632 -0.03878,0.1106 l -0.251363,0.68802 z m 0.682269,0.78425 h -0.298762 q -0.05027,0 -0.08187,-0.0244 -0.0316,-0.0259 -0.0474,-0.0632 l -0.155126,-0.42373 h -0.860378 l -0.155126,0.42373 q -0.01149,0.033 -0.04453,0.0603 -0.03304,0.0273 -0.08187,0.0273 h -0.301634 l 0.817286,-2.07697 h 0.393562 z"
         style="font-style:normal;font-variant:normal;font-weight:bold;font-stretch:normal;font-size:2.87271261px;font-family:Lato;-inkscape-font-specification:'Lato Bold';stroke-width:0.35908908"
         id="path900" />
      <path
         d="m 55.099127,150.59996 h -0.626252 v 1.75954 h -0.38638 v -1.75954 h -0.626251 v -0.31743 h 1.638883 z"
         style="font-style:normal;font-variant:normal;font-weight:bold;font-stretch:normal;font-size:2.87271261px;font-family:Lato;-inkscape-font-specification:'Lato Bold';stroke-width:0.35908908"
         id="path902" />
      <path
         d="m 55.759851,152.3595 h -0.387816 v -2.07697 h 0.387816 z"
         style="font-style:normal;font-variant:normal;font-weight:bold;font-stretch:normal;font-size:2.87271261px;font-family:Lato;-inkscape-font-specification:'Lato Bold';stroke-width:0.35908908"
         id="path904" />
      <path
         d="m 57.650094,151.8697 q 0.0316,0 0.05602,0.0244 l 0.152253,0.16518 q -0.126399,0.15656 -0.311689,0.23987 -0.183854,0.0833 -0.442398,0.0833 -0.231253,0 -0.416543,-0.079 -0.183854,-0.079 -0.314562,-0.21976 -0.130709,-0.14077 -0.20109,-0.33611 -0.06894,-0.19535 -0.06894,-0.4266 0,-0.23412 0.07469,-0.42803 0.07469,-0.19535 0.209708,-0.33611 0.136454,-0.14076 0.324617,-0.21833 0.188163,-0.079 0.416543,-0.079 0.226945,0 0.40218,0.0747 0.176672,0.0747 0.300199,0.19535 l -0.129273,0.17954 q -0.01149,0.0172 -0.03016,0.0302 -0.01724,0.0129 -0.04884,0.0129 -0.02154,0 -0.04453,-0.0115 -0.02298,-0.0129 -0.05027,-0.0302 -0.02729,-0.0187 -0.0632,-0.0402 -0.03591,-0.0215 -0.08331,-0.0388 -0.0474,-0.0187 -0.110599,-0.0302 -0.06176,-0.0129 -0.143636,-0.0129 -0.139327,0 -0.255671,0.0503 -0.114909,0.0488 -0.198218,0.14364 -0.08331,0.0934 -0.129272,0.22981 -0.04596,0.13502 -0.04596,0.30882 0,0.17524 0.04884,0.31169 0.05027,0.13645 0.135017,0.22982 0.08475,0.0934 0.199654,0.14363 0.114909,0.0488 0.247053,0.0488 0.079,0 0.1422,-0.009 0.06464,-0.009 0.117781,-0.0273 0.05458,-0.0187 0.101981,-0.0474 0.04884,-0.0302 0.09624,-0.0733 0.01436,-0.0129 0.03016,-0.0201 0.0158,-0.009 0.03304,-0.009 z"
         style="font-style:normal;font-variant:normal;font-weight:bold;font-stretch:normal;font-size:2.87271261px;font-family:Lato;-inkscape-font-specification:'Lato Bold';stroke-width:0.35908908"
         id="path906" />
      <path
         d="m 59.221471,151.57525 -0.252799,-0.69089 q -0.01867,-0.046 -0.03878,-0.10916 -0.02011,-0.0632 -0.04022,-0.13646 -0.01867,0.0733 -0.03878,0.13789 -0.02011,0.0632 -0.03878,0.1106 l -0.251362,0.68802 z m 0.682269,0.78425 h -0.298762 q -0.05027,0 -0.08187,-0.0244 -0.0316,-0.0259 -0.0474,-0.0632 l -0.155126,-0.42373 h -0.860378 l -0.155126,0.42373 q -0.01149,0.033 -0.04453,0.0603 -0.03304,0.0273 -0.08187,0.0273 h -0.301635 l 0.817287,-2.07697 h 0.393562 z"
         style="font-style:normal;font-variant:normal;font-weight:bold;font-stretch:normal;font-size:2.87271261px;font-family:Lato;-inkscape-font-specification:'Lato Bold';stroke-width:0.35908908"
         id="path908" />
      <path
         d="m 61.335787,152.04063 v 0.31887 h -1.216594 v -2.07697 h 0.38638 v 1.7581 z"
         style="font-style:normal;font-variant:normal;font-weight:bold;font-stretch:normal;font-size:2.87271261px;font-family:Lato;-inkscape-font-specification:'Lato Bold';stroke-width:0.35908908"
         id="path910" />
    </g>
    <g
       aria-label="SOCIETY"
       transform="scale(1.0089906,0.99108955)"
       style="font-style:normal;font-weight:normal;font-size:14.36356258px;line-height:1.25;font-family:sans-serif;letter-spacing:0px;word-spacing:0px;fill:#000000;fill-opacity:1;stroke:none;stroke-width:0.35908908"
       id="text5743-1-0">
      <path
         d="m 40.150961,153.7911 q -0.01724,0.0302 -0.03735,0.0445 -0.01867,0.0129 -0.0474,0.0129 -0.03016,0 -0.06607,-0.0215 -0.03447,-0.023 -0.08331,-0.0503 -0.04884,-0.0273 -0.114909,-0.0488 -0.06464,-0.023 -0.15369,-0.023 -0.08044,0 -0.140763,0.0201 -0.06033,0.0187 -0.101981,0.0531 -0.04022,0.0345 -0.06033,0.0833 -0.02011,0.0474 -0.02011,0.10486 0,0.0733 0.04022,0.12209 0.04165,0.0488 0.109163,0.0833 0.06751,0.0345 0.15369,0.0618 0.08618,0.0273 0.176672,0.0589 0.09049,0.0302 0.176672,0.0718 0.08618,0.0402 0.15369,0.10341 0.06751,0.0618 0.107727,0.15226 0.04165,0.0905 0.04165,0.21976 0,0.14076 -0.04884,0.26429 -0.0474,0.12209 -0.140763,0.21402 -0.09193,0.0905 -0.225508,0.14363 -0.133581,0.0517 -0.305944,0.0517 -0.09911,0 -0.195344,-0.0201 -0.09624,-0.0187 -0.18529,-0.0546 -0.08762,-0.0359 -0.165181,-0.0862 -0.07756,-0.0503 -0.137891,-0.11204 l 0.113473,-0.18529 q 0.01436,-0.0201 0.03735,-0.033 0.02298,-0.0144 0.04884,-0.0144 0.03591,0 0.07756,0.0302 0.04165,0.0287 0.09911,0.0646 0.05745,0.0359 0.133581,0.0661 0.07756,0.0287 0.18529,0.0287 0.165181,0 0.255671,-0.0776 0.09049,-0.079 0.09049,-0.22551 0,-0.0819 -0.04165,-0.13358 -0.04022,-0.0517 -0.107726,-0.0862 -0.06751,-0.0359 -0.15369,-0.0603 -0.08618,-0.0244 -0.175236,-0.0531 -0.08905,-0.0287 -0.175235,-0.069 -0.08618,-0.0402 -0.15369,-0.10485 -0.06751,-0.0646 -0.109164,-0.16087 -0.04022,-0.0977 -0.04022,-0.23987 0,-0.11348 0.04453,-0.2212 0.04596,-0.10773 0.132144,-0.19104 0.08618,-0.0833 0.212581,-0.13358 0.126399,-0.0503 0.290144,-0.0503 0.183854,0 0.33898,0.0575 0.155127,0.0575 0.26429,0.16087 z"
         style="font-style:normal;font-variant:normal;font-weight:bold;font-stretch:normal;font-size:2.87271261px;font-family:Lato;-inkscape-font-specification:'Lato Bold';stroke-width:0.35908908"
         id="path873" />
      <path
         d="m 42.601385,154.45183 q 0,0.22838 -0.07613,0.42372 -0.07469,0.19391 -0.212581,0.33611 -0.13789,0.1422 -0.331798,0.22263 -0.193908,0.079 -0.430907,0.079 -0.235562,0 -0.429471,-0.079 -0.193908,-0.0804 -0.333234,-0.22263 -0.13789,-0.1422 -0.214017,-0.33611 -0.07613,-0.19534 -0.07613,-0.42372 0,-0.22839 0.07613,-0.42229 0.07613,-0.19535 0.214017,-0.33755 0.139326,-0.1422 0.333234,-0.2212 0.193909,-0.0804 0.429471,-0.0804 0.157999,0 0.297326,0.0373 0.139326,0.0359 0.255671,0.10342 0.116345,0.0661 0.208272,0.16231 0.09336,0.0948 0.157999,0.21258 0.06464,0.11778 0.09767,0.25567 0.03447,0.13789 0.03447,0.29015 z m -0.394998,0 q 0,-0.17093 -0.04596,-0.30595 -0.04596,-0.13645 -0.130708,-0.23125 -0.08475,-0.0948 -0.206835,-0.14507 -0.120654,-0.0503 -0.272908,-0.0503 -0.152254,0 -0.274344,0.0503 -0.120654,0.0503 -0.206835,0.14507 -0.08474,0.0948 -0.130709,0.23125 -0.04596,0.13502 -0.04596,0.30595 0,0.17092 0.04596,0.30738 0.04596,0.13501 0.130709,0.22981 0.08618,0.0934 0.206835,0.14364 0.12209,0.0503 0.274344,0.0503 0.152254,0 0.272908,-0.0503 0.12209,-0.0503 0.206835,-0.14364 0.08474,-0.0948 0.130708,-0.22981 0.04596,-0.13646 0.04596,-0.30738 z"
         style="font-style:normal;font-variant:normal;font-weight:bold;font-stretch:normal;font-size:2.87271261px;font-family:Lato;-inkscape-font-specification:'Lato Bold';stroke-width:0.35908908"
         id="path875" />
      <path
         d="m 44.368105,155.00051 q 0.0316,0 0.05602,0.0244 l 0.152254,0.16518 q -0.126399,0.15657 -0.311689,0.23987 -0.183854,0.0833 -0.442398,0.0833 -0.231253,0 -0.416543,-0.079 -0.183854,-0.079 -0.314562,-0.21976 -0.130709,-0.14076 -0.20109,-0.33611 -0.06894,-0.19534 -0.06894,-0.42659 0,-0.23413 0.07469,-0.42804 0.07469,-0.19534 0.209708,-0.33611 0.136454,-0.14076 0.324617,-0.21832 0.188163,-0.079 0.416543,-0.079 0.226944,0 0.40218,0.0747 0.176672,0.0747 0.300198,0.19534 l -0.129272,0.17955 q -0.01149,0.0172 -0.03016,0.0302 -0.01724,0.0129 -0.04884,0.0129 -0.02155,0 -0.04453,-0.0115 -0.02298,-0.0129 -0.05027,-0.0302 -0.02729,-0.0187 -0.0632,-0.0402 -0.03591,-0.0216 -0.08331,-0.0388 -0.0474,-0.0187 -0.1106,-0.0302 -0.06176,-0.0129 -0.143635,-0.0129 -0.139327,0 -0.255672,0.0503 -0.114908,0.0488 -0.198217,0.14363 -0.08331,0.0934 -0.129272,0.22982 -0.04596,0.13502 -0.04596,0.30882 0,0.17523 0.04884,0.31168 0.05027,0.13646 0.135017,0.22982 0.08474,0.0934 0.199654,0.14364 0.114908,0.0488 0.247053,0.0488 0.079,0 0.142199,-0.009 0.06464,-0.009 0.117782,-0.0273 0.05458,-0.0187 0.101981,-0.0474 0.04884,-0.0302 0.09624,-0.0733 0.01436,-0.0129 0.03016,-0.0201 0.0158,-0.009 0.03304,-0.009 z"
         style="font-style:normal;font-variant:normal;font-weight:bold;font-stretch:normal;font-size:2.87271261px;font-family:Lato;-inkscape-font-specification:'Lato Bold';stroke-width:0.35908908"
         id="path877" />
      <path
         d="m 45.229921,155.49031 h -0.387816 v -2.07697 h 0.387816 z"
         style="font-style:normal;font-variant:normal;font-weight:bold;font-stretch:normal;font-size:2.87271261px;font-family:Lato;-inkscape-font-specification:'Lato Bold';stroke-width:0.35908908"
         id="path879" />
      <path
         d="m 46.081678,153.72072 v 0.57598 h 0.726797 v 0.29732 h -0.726797 v 0.58747 h 0.922141 v 0.30882 h -1.309957 v -2.07697 h 1.309957 v 0.30738 z"
         style="font-style:normal;font-variant:normal;font-weight:bold;font-stretch:normal;font-size:2.87271261px;font-family:Lato;-inkscape-font-specification:'Lato Bold';stroke-width:0.35908908"
         id="path881" />
      <path
         d="m 48.796394,153.73077 h -0.626251 v 1.75954 h -0.38638 v -1.75954 h -0.626251 v -0.31743 h 1.638882 z"
         style="font-style:normal;font-variant:normal;font-weight:bold;font-stretch:normal;font-size:2.87271261px;font-family:Lato;-inkscape-font-specification:'Lato Bold';stroke-width:0.35908908"
         id="path883" />
      <path
         d="m 49.96128,154.68595 v 0.80436 h -0.384944 v -0.80436 l -0.75696,-1.27261 h 0.340417 q 0.05027,0 0.079,0.0244 0.03016,0.0244 0.05027,0.0618 l 0.379198,0.69376 q 0.03304,0.0618 0.05745,0.11635 0.02585,0.0546 0.04596,0.10916 0.01867,-0.0546 0.04309,-0.10916 0.02442,-0.0546 0.05602,-0.11635 l 0.377762,-0.69376 q 0.0158,-0.0316 0.0474,-0.0589 0.0316,-0.0273 0.08044,-0.0273 h 0.341852 z"
         style="font-style:normal;font-variant:normal;font-weight:bold;font-stretch:normal;font-size:2.87271261px;font-family:Lato;-inkscape-font-specification:'Lato Bold';stroke-width:0.35908908"
         id="path885" />
    </g>
    <circle
       style="fill:#ffffff;fill-opacity:1;stroke:#000000;stroke-width:0.19473402;stroke-linejoin:round;stroke-miterlimit:4;stroke-dasharray:none;stroke-opacity:1;paint-order:fill markers stroke"
       id="path821-6-6-3"
       cx="-29.316778"
       cy="151.03622"
       r="0.61337352"
       transform="scale(-1,1)" />
    <circle
       style="fill:#ffffff;fill-opacity:1;stroke:#000000;stroke-width:0.19473402;stroke-linejoin:round;stroke-miterlimit:4;stroke-dasharray:none;stroke-opacity:1;paint-order:fill markers stroke"
       id="path821-6-6"
       cx="-36.823753"
       cy="151.02826"
       r="0.61337352"
       transform="scale(-1,1)" />
    <path
       style="fill:#ffffff;fill-opacity:1;stroke:none;stroke-width:0.01610676;stroke-linecap:round;stroke-linejoin:round;stroke-miterlimit:4;stroke-dasharray:none;stroke-opacity:1;paint-order:fill markers stroke"
       d="m 13.813802,16.029962 c -0.0099,-0.24079 -0.05403,-0.413355 -0.159822,-0.624785 -0.05977,-0.119453 -0.06519,-0.138107 -0.04011,-0.138107 0.107053,0 0.724715,0.198762 0.77551,0.249557 0.02761,0.02762 -0.28312,0.437066 -0.473421,0.62382 l -0.09384,0.09209 z"
       id="path864"
       inkscape:connector-curvature="0"
       transform="matrix(0.26458333,0,0,0.26458333,28.606038,145.18706)" />
    <path
       style="fill:#ffffff;fill-opacity:1;stroke:none;stroke-width:0.01610676;stroke-linecap:round;stroke-linejoin:round;stroke-miterlimit:4;stroke-dasharray:none;stroke-opacity:1;paint-order:fill markers stroke"
       d="m 12.170819,16.939363 c -0.111896,-0.01878 -0.234353,-0.08455 -0.309793,-0.16639 -0.18221,-0.197674 -0.266833,-0.607149 -0.174994,-0.846766 0.07503,-0.195752 0.221069,-0.342879 0.450845,-0.454195 0.261285,-0.12658 0.492593,-0.181037 0.723305,-0.170289 0.174837,0.0081 0.259676,0.04177 0.373119,0.147883 0.220283,0.206049 0.305892,0.653881 0.177439,0.928215 -0.123085,0.262871 -0.479525,0.478767 -0.916142,0.554906 -0.144214,0.02515 -0.205911,0.02641 -0.323779,0.0066 z m 0.56393,-0.327795 c 0.265988,-0.144003 0.337789,-0.584489 0.138298,-0.848435 -0.03192,-0.04224 -0.09287,-0.09833 -0.13544,-0.124648 -0.06709,-0.04148 -0.09226,-0.04785 -0.189118,-0.04785 -0.09339,0 -0.12381,0.0071 -0.18537,0.04329 -0.285593,0.167887 -0.347137,0.585038 -0.129203,0.875751 0.04249,0.05668 0.155182,0.128439 0.231765,0.14758 0.07586,0.01896 0.183376,7.01e-4 0.269068,-0.04569 z"
       id="path866"
       inkscape:connector-curvature="0"
       transform="matrix(0.26458333,0,0,0.26458333,28.606038,145.18706)" />
    <path
       style="fill:#ffffff;fill-opacity:1;stroke:none;stroke-width:0.01610676;stroke-linecap:round;stroke-linejoin:round;stroke-miterlimit:4;stroke-dasharray:none;stroke-opacity:1;paint-order:fill markers stroke"
       d="m 12.47737,16.204068 c -0.03895,-0.04952 -0.04106,-0.08588 -0.0086,-0.1486 0.0178,-0.03442 0.0353,-0.0465 0.06708,-0.04632 0.05183,2.91e-4 0.07195,0.01244 0.09588,0.05791 0.02655,0.05044 0.02233,0.09011 -0.01457,0.137016 -0.04219,0.05363 -0.09757,0.05363 -0.139762,0 z"
       id="path868"
       inkscape:connector-curvature="0"
       transform="matrix(0.26458333,0,0,0.26458333,28.606038,145.18706)" />
    <path
       style="fill:#ffffff;fill-opacity:1;stroke:none;stroke-width:0.01610676;stroke-linecap:round;stroke-linejoin:round;stroke-miterlimit:4;stroke-dasharray:none;stroke-opacity:1;paint-order:fill markers stroke"
       d="m 11.268777,16.925694 c -0.156857,-0.04027 -0.470492,-0.15297 -0.527809,-0.189661 -0.01869,-0.01196 -0.01191,-0.03091 0.03806,-0.106466 0.110159,-0.166545 0.246345,-0.336879 0.384841,-0.481337 l 0.136473,-0.142348 0.0026,0.163292 c 0.0039,0.245429 0.07201,0.512906 0.178855,0.702233 0.02608,0.04622 0.04743,0.08769 0.04743,0.09216 0,0.01825 -0.09642,0.0042 -0.26043,-0.03788 z"
       id="path870"
       inkscape:connector-curvature="0"
       transform="matrix(0.26458333,0,0,0.26458333,28.606038,145.18706)" />
    <path
       style="fill:#ffffff;fill-opacity:1;stroke:none;stroke-width:0.01610676;stroke-linecap:round;stroke-linejoin:round;stroke-miterlimit:4;stroke-dasharray:none;stroke-opacity:1;paint-order:fill markers stroke"
       d="m 19.814033,16.091844 c -0.131856,-0.138647 -0.313421,-0.368638 -0.398857,-0.505242 l -0.04201,-0.06717 0.09101,-0.04028 c 0.19813,-0.0877 0.609214,-0.211988 0.701399,-0.212059 0.02138,-1.7e-5 0.01319,0.02621 -0.04312,0.138086 -0.09523,0.189205 -0.150541,0.407121 -0.162833,0.641589 l -0.0098,0.18781 z"
       id="path872"
       inkscape:connector-curvature="0"
       transform="matrix(0.26458333,0,0,0.26458333,28.606038,145.18706)" />
    <path
       style="fill:#ffffff;fill-opacity:1;stroke:none;stroke-width:0.01610676;stroke-linecap:round;stroke-linejoin:round;stroke-miterlimit:4;stroke-dasharray:none;stroke-opacity:1;paint-order:fill markers stroke"
       d="m 21.362411,16.946683 c -0.179903,-0.03153 -0.238951,-0.0453 -0.344668,-0.08041 -0.271484,-0.09016 -0.499539,-0.242489 -0.603236,-0.402929 -0.07705,-0.119216 -0.09458,-0.175688 -0.105096,-0.338573 -0.02137,-0.331133 0.135975,-0.658505 0.372309,-0.774611 0.0842,-0.04137 0.09985,-0.04357 0.301883,-0.0424 0.2549,0.0015 0.398216,0.03781 0.661962,0.167852 0.345523,0.170361 0.515213,0.435195 0.483285,0.75426 -0.03385,0.338246 -0.190165,0.594601 -0.413531,0.678173 -0.08528,0.03191 -0.273638,0.05253 -0.352908,0.03864 z m 0.05478,-0.335418 c 0.0921,-0.04935 0.185326,-0.164732 0.225268,-0.278799 0.04016,-0.114677 0.03564,-0.320458 -0.0096,-0.436372 -0.151784,-0.389087 -0.597511,-0.416933 -0.778832,-0.04866 -0.09247,0.187817 -0.08006,0.442666 0.02953,0.606623 0.137607,0.205861 0.334547,0.263879 0.533614,0.157203 z"
       id="path874"
       inkscape:connector-curvature="0"
       transform="matrix(0.26458333,0,0,0.26458333,28.606038,145.18706)" />
    <path
       style="fill:#ffffff;fill-opacity:1;stroke:none;stroke-width:0.01610676;stroke-linecap:round;stroke-linejoin:round;stroke-miterlimit:4;stroke-dasharray:none;stroke-opacity:1;paint-order:fill markers stroke"
       d="m 21.164405,16.213303 c -0.0378,-0.04177 -0.0378,-0.130279 0,-0.172049 0.03928,-0.04341 0.110512,-0.04204 0.141868,0.0027 0.07915,0.112999 -0.05161,0.269059 -0.141868,0.169323 z"
       id="path876"
       inkscape:connector-curvature="0"
       transform="matrix(0.26458333,0,0,0.26458333,28.606038,145.18706)" />
    <path
       style="fill:#ffffff;fill-opacity:1;stroke:none;stroke-width:0.01610676;stroke-linecap:round;stroke-linejoin:round;stroke-miterlimit:4;stroke-dasharray:none;stroke-opacity:1;paint-order:fill markers stroke"
       d="m 22.312171,16.833346 c 0.09578,-0.190448 0.152781,-0.41022 0.166002,-0.640056 l 0.0098,-0.170743 0.108877,0.107609 c 0.05988,0.05918 0.15288,0.163239 0.20666,0.231233 0.101545,0.128379 0.247728,0.34024 0.247728,0.359027 0,0.01569 -0.239138,0.115214 -0.39142,0.162896 -0.111383,0.03488 -0.205853,0.05822 -0.39162,0.09676 -0.02984,0.0062 -0.02526,-0.0091 0.04395,-0.146727 z"
       id="path878"
       inkscape:connector-curvature="0"
       transform="matrix(0.26458333,0,0,0.26458333,28.606038,145.18706)" />
  </g>
</svg>
